<svg width="127" height="44" viewBox="0 0 127 44" fill="none" xmlns="http://www.w3.org/2000/svg">
<g filter="url(#filter0_d_1_9036)">
<rect x="2" y="1" width="40" height="40" rx="20" fill="#FDFDFD"/>
<path d="M25.2173 10.6672C23.8166 10.7001 22.6054 11.3217 21.9375 12.5852C21.2696 13.8493 21.135 15.8231 22.1169 18.5895V18.5994C22.2764 19.068 22.2366 19.5564 21.9873 19.9153C21.7381 20.2792 21.3444 20.4935 20.8958 20.6381C19.9986 20.9272 18.7873 20.9571 17.4416 20.8624C15.0141 20.6879 12.188 20.0798 10.3447 19.4717C10.2281 22.2779 11.0067 25.139 12.6017 27.3072C14.3064 29.625 16.8983 31.1702 20.3774 31.1054C22.6353 31.0655 25.302 30.7365 27.3655 29.8343C29.4291 28.9371 30.8546 27.5515 30.9194 25.2287V25.2237C30.9493 24.2368 30.0023 22.8761 29.1101 21.5004C28.6665 20.8125 28.2478 20.1147 28.0185 19.387C27.7892 18.6642 27.7693 17.8767 28.178 17.1689L28.188 17.154L28.1979 17.139C29.3045 15.5141 29.13 13.924 28.3923 12.6909C27.6596 11.4553 26.3238 10.6413 25.2173 10.6672ZM26.7375 12.7632C26.9754 12.7632 27.2035 12.8576 27.3717 13.0258C27.54 13.1939 27.6346 13.422 27.6347 13.6599C27.6347 13.7777 27.6115 13.8944 27.5664 14.0032C27.5213 14.1121 27.4552 14.211 27.3719 14.2943C27.2886 14.3776 27.1897 14.4437 27.0808 14.4888C26.972 14.5339 26.8553 14.5571 26.7375 14.5571C26.4996 14.5571 26.2713 14.4625 26.1031 14.2943C25.9348 14.126 25.8403 13.8978 25.8403 13.6599C25.8404 13.422 25.935 13.1939 26.1033 13.0258C26.2715 12.8576 26.4996 12.7632 26.7375 12.7632ZM29.8627 14.6169C29.8827 15.3297 29.7431 16.0773 29.4042 16.82C30.3761 16.7602 31.3381 16.6505 32.0758 16.4013C32.5543 16.2468 32.9282 16.0325 33.1624 15.7882C33.297 15.6437 33.3867 15.4892 33.4416 15.3047C32.2104 15.3197 30.8995 14.9907 29.8627 14.6169ZM26.244 21.7197C26.568 22.3976 26.5481 23.1253 26.2789 23.7583C26.0098 24.3913 25.5163 24.9446 24.8983 25.448C23.6671 26.4449 21.9275 27.2175 20.2328 27.6811C18.5381 28.1446 16.9232 28.3191 15.8116 27.9203C15.2534 27.7209 14.7849 27.2923 14.7051 26.6991C14.6254 26.101 14.8845 25.463 15.4229 24.7153L16.1506 25.2437C15.6821 25.8917 15.5624 26.3502 15.5923 26.5795C15.6272 26.8138 15.7469 26.9434 16.1107 27.0779C16.8434 27.3371 18.3986 27.2524 19.9986 26.8138C21.5936 26.3801 23.2534 25.6275 24.335 24.7502C24.8733 24.3116 25.2671 23.8431 25.4515 23.4044C25.6409 22.9658 25.6559 22.567 25.4366 22.1085L26.244 21.7197Z" fill="url(#paint0_linear_1_9036)"/>
</g>
<path d="M50.63 20.7C50.63 19.464 50.906 18.36 51.458 17.388C52.022 16.404 52.784 15.642 53.744 15.102C54.716 14.55 55.802 14.274 57.002 14.274C58.406 14.274 59.636 14.634 60.692 15.354C61.748 16.074 62.486 17.07 62.906 18.342H60.008C59.72 17.742 59.312 17.292 58.784 16.992C58.268 16.692 57.668 16.542 56.984 16.542C56.252 16.542 55.598 16.716 55.022 17.064C54.458 17.4 54.014 17.88 53.69 18.504C53.378 19.128 53.222 19.86 53.222 20.7C53.222 21.528 53.378 22.26 53.69 22.896C54.014 23.52 54.458 24.006 55.022 24.354C55.598 24.69 56.252 24.858 56.984 24.858C57.668 24.858 58.268 24.708 58.784 24.408C59.312 24.096 59.72 23.64 60.008 23.04H62.906C62.486 24.324 61.748 25.326 60.692 26.046C59.648 26.754 58.418 27.108 57.002 27.108C55.802 27.108 54.716 26.838 53.744 26.298C52.784 25.746 52.022 24.984 51.458 24.012C50.906 23.04 50.63 21.936 50.63 20.7ZM64.4104 21.978C64.4104 20.97 64.6084 20.076 65.0044 19.296C65.4124 18.516 65.9584 17.916 66.6424 17.496C67.3384 17.076 68.1124 16.866 68.9644 16.866C69.7084 16.866 70.3564 17.016 70.9084 17.316C71.4724 17.616 71.9224 17.994 72.2584 18.45V17.028H74.7964V27H72.2584V25.542C71.9344 26.01 71.4844 26.4 70.9084 26.712C70.3444 27.012 69.6904 27.162 68.9464 27.162C68.1064 27.162 67.3384 26.946 66.6424 26.514C65.9584 26.082 65.4124 25.476 65.0044 24.696C64.6084 23.904 64.4104 22.998 64.4104 21.978ZM72.2584 22.014C72.2584 21.402 72.1384 20.88 71.8984 20.448C71.6584 20.004 71.3344 19.668 70.9264 19.44C70.5184 19.2 70.0804 19.08 69.6124 19.08C69.1444 19.08 68.7124 19.194 68.3164 19.422C67.9204 19.65 67.5964 19.986 67.3444 20.43C67.1044 20.862 66.9844 21.378 66.9844 21.978C66.9844 22.578 67.1044 23.106 67.3444 23.562C67.5964 24.006 67.9204 24.348 68.3164 24.588C68.7244 24.828 69.1564 24.948 69.6124 24.948C70.0804 24.948 70.5184 24.834 70.9264 24.606C71.3344 24.366 71.6584 24.03 71.8984 23.598C72.1384 23.154 72.2584 22.626 72.2584 22.014ZM76.6096 21.978C76.6096 20.97 76.8076 20.076 77.2036 19.296C77.6116 18.516 78.1636 17.916 78.8596 17.496C79.5556 17.076 80.3296 16.866 81.1816 16.866C81.8296 16.866 82.4476 17.01 83.0356 17.298C83.6236 17.574 84.0916 17.946 84.4396 18.414V13.68H86.9956V27H84.4396V25.524C84.1276 26.016 83.6896 26.412 83.1256 26.712C82.5616 27.012 81.9076 27.162 81.1636 27.162C80.3236 27.162 79.5556 26.946 78.8596 26.514C78.1636 26.082 77.6116 25.476 77.2036 24.696C76.8076 23.904 76.6096 22.998 76.6096 21.978ZM84.4576 22.014C84.4576 21.402 84.3376 20.88 84.0976 20.448C83.8576 20.004 83.5336 19.668 83.1256 19.44C82.7176 19.2 82.2796 19.08 81.8116 19.08C81.3436 19.08 80.9116 19.194 80.5156 19.422C80.1196 19.65 79.7956 19.986 79.5436 20.43C79.3036 20.862 79.1836 21.378 79.1836 21.978C79.1836 22.578 79.3036 23.106 79.5436 23.562C79.7956 24.006 80.1196 24.348 80.5156 24.588C80.9236 24.828 81.3556 24.948 81.8116 24.948C82.2796 24.948 82.7176 24.834 83.1256 24.606C83.5336 24.366 83.8576 24.03 84.0976 23.598C84.3376 23.154 84.4576 22.626 84.4576 22.014ZM98.7268 21.798C98.7268 22.158 98.7028 22.482 98.6548 22.77H91.3648C91.4248 23.49 91.6768 24.054 92.1208 24.462C92.5648 24.87 93.1108 25.074 93.7588 25.074C94.6948 25.074 95.3608 24.672 95.7568 23.868H98.4748C98.1868 24.828 97.6348 25.62 96.8188 26.244C96.0028 26.856 95.0008 27.162 93.8128 27.162C92.8528 27.162 91.9888 26.952 91.2208 26.532C90.4648 26.1 89.8708 25.494 89.4388 24.714C89.0188 23.934 88.8088 23.034 88.8088 22.014C88.8088 20.982 89.0188 20.076 89.4388 19.296C89.8588 18.516 90.4468 17.916 91.2028 17.496C91.9588 17.076 92.8288 16.866 93.8128 16.866C94.7608 16.866 95.6068 17.07 96.3508 17.478C97.1068 17.886 97.6888 18.468 98.0968 19.224C98.5168 19.968 98.7268 20.826 98.7268 21.798ZM96.1168 21.078C96.1048 20.43 95.8708 19.914 95.4148 19.53C94.9588 19.134 94.4008 18.936 93.7408 18.936C93.1168 18.936 92.5888 19.128 92.1568 19.512C91.7368 19.884 91.4788 20.406 91.3828 21.078H96.1168ZM103.5 19.098V23.922C103.5 24.258 103.578 24.504 103.734 24.66C103.902 24.804 104.178 24.876 104.562 24.876H105.732V27H104.148C102.024 27 100.962 25.968 100.962 23.904V19.098H99.7742V17.028H100.962V14.562H103.5V17.028H105.732V19.098H103.5Z" fill="#0EB4D3"/>
<path d="M112.726 14.436V22.212C112.726 23.064 112.948 23.718 113.392 24.174C113.836 24.618 114.46 24.84 115.264 24.84C116.08 24.84 116.71 24.618 117.154 24.174C117.598 23.718 117.82 23.064 117.82 22.212V14.436H120.358V22.194C120.358 23.262 120.124 24.168 119.656 24.912C119.2 25.644 118.582 26.196 117.802 26.568C117.034 26.94 116.176 27.126 115.228 27.126C114.292 27.126 113.44 26.94 112.672 26.568C111.916 26.196 111.316 25.644 110.872 24.912C110.428 24.168 110.206 23.262 110.206 22.194V14.436H112.726ZM125.313 14.436V27H122.793V14.436H125.313Z" fill="#101113"/>
<defs>
<filter id="filter0_d_1_9036" x="0" y="0" width="44" height="44" filterUnits="userSpaceOnUse" color-interpolation-filters="sRGB">
<feFlood flood-opacity="0" result="BackgroundImageFix"/>
<feColorMatrix in="SourceAlpha" type="matrix" values="0 0 0 0 0 0 0 0 0 0 0 0 0 0 0 0 0 0 127 0" result="hardAlpha"/>
<feOffset dy="1"/>
<feGaussianBlur stdDeviation="1"/>
<feComposite in2="hardAlpha" operator="out"/>
<feColorMatrix type="matrix" values="0 0 0 0 0 0 0 0 0 0 0 0 0 0 0 0 0 0 0.12 0"/>
<feBlend mode="normal" in2="BackgroundImageFix" result="effect1_dropShadow_1_9036"/>
<feBlend mode="normal" in="SourceGraphic" in2="effect1_dropShadow_1_9036" result="shape"/>
</filter>
<linearGradient id="paint0_linear_1_9036" x1="23.5" y1="20.9999" x2="17.4999" y2="30.9999" gradientUnits="userSpaceOnUse">
<stop stop-color="#0EB4D3"/>
<stop offset="1" stop-color="#0D3030"/>
</linearGradient>
</defs>
</svg>
